<svg id="Layer_1" data-name="Layer 1" xmlns="http://www.w3.org/2000/svg" viewBox="0 0 182.15 60.37"><defs><style>.cls-1{fill:#6441a5;}</style></defs><title>twitchlogo</title><path class="cls-1" d="M462.81,197.63H451.37v-9.37H431.59l-9.37,9.37H411.81l-5.2,5.2v-5.2h-9.37v-9.37H361.85v9.37H319.17l-9.37-9.37H290v41.64l9.37,9.37L315,248.63h13.53v-2.08l5.2,2.08H359l4.47-5.2,0.59,5.2h16.51l0.33-5.2,6,5.2H401.4l1-5.2,5.2,5.2H424.3l5.2-5.2v5.2h9.37l7.29-5.2v5.2h10.41l15.61-10.41V207ZM315,213.24h-9.37v10.41H315V235.1H301.48l-7.29-7.29V192.42h11.45v9.37H315v11.45Zm46.84,14.57-7.29,7.29H319.17V201.79h11.45v21.86h4.16V201.79h11.45v21.86h4.16V201.79h11.45v26Zm15.61,7.29H366V201.79h11.45V235.1Zm0-37.47H366v-5.21h11.45v5.21Zm25,15.61h-9.37v10.41h9.37V235.1H388.91l-7.29-7.29V192.42h11.45v9.37h9.37v11.45Zm29.14,0H418.06v10.41h13.53V235.1H413.89l-7.29-7.29V209.08l7.29-7.29h17.69v11.45ZM468,235.1H456.57V213.24H447.2V235.1H435.75V192.42H447.2v9.37h13.53l7.29,7.29v26Z" transform="translate(-290.03 -188.26)"/></svg>